<svg width="500" height="500" viewBox="0 0 500 500" fill="none" xmlns="http://www.w3.org/2000/svg">
<g clip-path="url(#clip0_1_73)">
<g filter="url(#filter0_d_1_73)">
<ellipse cx="250.5" cy="250" rx="250.5" ry="250" fill="white"/>
</g>
<g clip-path="url(#clip1_1_73)" filter="url(#filter1_d_1_73)">
<path d="M363.489 75H250.496L285.418 183.993H398.411L306.992 248.99L341.925 358.601C400.769 315.669 419.995 250.693 398.421 183.993L363.489 75ZM102.581 183.993H215.574L250.496 75H137.513L102.581 183.993C80.9966 250.693 100.234 315.669 159.078 358.601L194 248.99L102.581 183.993ZM159.078 358.601L250.496 423.466L341.914 358.601L250.496 292.662L159.078 358.601Z" fill="black"/>
</g>
</g>
<defs>
<filter id="filter0_d_1_73" x="-4" y="0" width="509" height="508" filterUnits="userSpaceOnUse" color-interpolation-filters="sRGB">
<feFlood flood-opacity="0" result="BackgroundImageFix"/>
<feColorMatrix in="SourceAlpha" type="matrix" values="0 0 0 0 0 0 0 0 0 0 0 0 0 0 0 0 0 0 127 0" result="hardAlpha"/>
<feOffset dy="4"/>
<feGaussianBlur stdDeviation="2"/>
<feComposite in2="hardAlpha" operator="out"/>
<feColorMatrix type="matrix" values="0 0 0 0 0 0 0 0 0 0 0 0 0 0 0 0 0 0 0.25 0"/>
<feBlend mode="normal" in2="BackgroundImageFix" result="effect1_dropShadow_1_73"/>
<feBlend mode="normal" in="SourceGraphic" in2="effect1_dropShadow_1_73" result="shape"/>
</filter>
<filter id="filter1_d_1_73" x="90" y="75" width="321" height="357" filterUnits="userSpaceOnUse" color-interpolation-filters="sRGB">
<feFlood flood-opacity="0" result="BackgroundImageFix"/>
<feColorMatrix in="SourceAlpha" type="matrix" values="0 0 0 0 0 0 0 0 0 0 0 0 0 0 0 0 0 0 127 0" result="hardAlpha"/>
<feOffset dy="4"/>
<feGaussianBlur stdDeviation="2"/>
<feComposite in2="hardAlpha" operator="out"/>
<feColorMatrix type="matrix" values="0 0 0 0 0 0 0 0 0 0 0 0 0 0 0 0 0 0 0.25 0"/>
<feBlend mode="normal" in2="BackgroundImageFix" result="effect1_dropShadow_1_73"/>
<feBlend mode="normal" in="SourceGraphic" in2="effect1_dropShadow_1_73" result="shape"/>
</filter>
<clipPath id="clip0_1_73">
<rect width="500" height="500" fill="white"/>
</clipPath>
<clipPath id="clip1_1_73">
<rect width="313" height="349" fill="white" transform="translate(94 75)"/>
</clipPath>
</defs>
</svg>
