<svg width="66" height="66" viewBox="0 0 66 66" fill="none" xmlns="http://www.w3.org/2000/svg">
<g clip-path="url(#clip0_12_55)">
<path d="M32.9 65.8C51.0702 65.8 65.8 51.0702 65.8 32.9C65.8 14.7298 51.0702 1.52588e-05 32.9 1.52588e-05C14.7299 1.52588e-05 0 14.7298 0 32.9C0 51.0702 14.7299 65.8 32.9 65.8Z" fill="#E0E0E0"/>
<path d="M32.9 64.8C50.7941 64.8 65.3 50.294 65.3 32.4C65.3 14.506 50.7941 1.52588e-05 32.9 1.52588e-05C15.006 1.52588e-05 0.5 14.506 0.5 32.4C0.5 50.294 15.006 64.8 32.9 64.8Z" fill="white"/>
<path d="M44.2029 45.2681L40.0747 32.5612L50.8811 24.7101H37.5232L33.3946 12.0035L33.3933 12.0001H46.7533L50.8829 24.7086L50.8831 24.7084L50.8866 24.7065C53.2847 32.0791 50.8147 40.4647 44.2028 45.2679L44.2029 45.2681ZM22.5851 45.2681L22.5818 45.2705L33.3911 53.1238L44.2029 45.2684L33.3946 37.415L22.5853 45.2681H22.5851ZM15.9044 24.7068C13.3798 32.4786 16.3103 40.7136 22.5831 45.2696L22.5841 45.2656L26.713 32.5595L15.9088 24.7099H29.2637L33.3924 12.0035L33.3933 12H20.0326L15.9043 24.7068H15.9044Z" fill="black"/>
</g>
<defs>
<clipPath id="clip0_12_55">
<rect width="65.7" height="65.8" fill="white"/>
</clipPath>
</defs>
</svg>
