<svg id="Layer_1" data-name="Layer 1" xmlns="http://www.w3.org/2000/svg" viewBox="0 0 118.1 112.99"><defs><style>.cls-1{fill:#c9d7e2;}.cls-2{fill:#5ed5e5;}.cls-3{fill:#64728c;opacity:0.18;}.cls-4{fill:#f8f2f9;}.cls-5{fill:#cde7f9;}.cls-6{fill:#daeaf7;}</style></defs><title>no posts</title><path class="cls-1" d="M86.61,24.29a3,3,0,1,0-3-3A3,3,0,0,0,86.61,24.29Zm0-4.5a1.5,1.5,0,1,1-1.5,1.5A1.5,1.5,0,0,1,86.61,19.79ZM144.5,61a2,2,0,1,0,2,2A2,2,0,0,0,144.5,61Zm0,3a1,1,0,1,1,1-1A1,1,0,0,1,144.5,64ZM78.3,38.58a2,2,0,1,0,2,2A2,2,0,0,0,78.3,38.58Zm0,3a1,1,0,1,1,1-1A1,1,0,0,1,78.3,41.58Zm23.28,77.76a2,2,0,1,0,2,2A2,2,0,0,0,101.58,119.34Zm0,3.07a1,1,0,1,1,1-1A1,1,0,0,1,101.58,122.41Z" transform="translate(-28.4 -18.29)"/><path class="cls-2" d="M45.45,49.53l1.48-2L46,47l-1,2.19h0l-1-2.17-1,.54,1.47,1.91v0l-2.3-.29v1.06l2.32-.3v0L43.08,52l.89.57,1-2.21h0L46,52.5l1-.56-1.5-1.88v0l2.36.28V49.25l-2.36.31Zm22.6-18-.86,1.1.52.32.58-1.27h0l.54,1.26.57-.32-.86-1.09h0l1.36.16V31l-1.36.18v0l.85-1.13-.54-.3L68.32,31h0l-.56-1.26-.55.32.85,1.1v0L66.72,31v.61l1.33-.17Zm72.14,59.25v-1l-2.32.31v0L139.33,88l-.92-.52-.93,2.15h0l-.95-2.14-.93.54L137,89.94v0l-2.26-.3v1l2.27-.29v0l-1.45,1.87.87.55,1-2.16h0l.92,2.15,1-.56-1.48-1.84v0Zm-23.7-50.37,1.26-1.65-.79-.45-.81,1.85h0l-.82-1.84-.81.47,1.25,1.61v0l-1.95-.25V41l2-.25v0l-1.26,1.62.76.47.86-1.86h0l.79,1.85.83-.48-1.27-1.59v0l2,.24v-.9l-2,.26Z" transform="translate(-28.4 -18.29)"/><path class="cls-3" d="M123.2,44.79H73.31a8.29,8.29,0,0,0-7.25,4.31,9.67,9.67,0,0,0-7.24,2.83l-27,27a11.72,11.72,0,0,0,0,16.55L64.2,127.85a11.7,11.7,0,0,0,16.55,0L94,114.65H123.2a8.33,8.33,0,0,0,8.32-8.32V53.1A8.32,8.32,0,0,0,123.2,44.79ZM78.4,125.5a8.39,8.39,0,0,1-11.85,0L34.18,93.12a8.35,8.35,0,0,1,0-11.84l27-27a6.38,6.38,0,0,1,3.87-1.82c0,.22-.06.42-.06.64V75.18a1.26,1.26,0,0,1-.37.89L49.73,91a1.26,1.26,0,0,0,0,1.78l.57.57a1.27,1.27,0,0,0,1.79,0L62.84,82.56a1.26,1.26,0,0,1,2.15.89v1.71a1.22,1.22,0,0,1-.37.89L59.71,91a1.26,1.26,0,0,0,0,1.78l.57.57a1.27,1.27,0,0,0,1.79,0l.77-.77a1.26,1.26,0,0,1,2.15.89V96.8a1.26,1.26,0,0,1-.37.9l-8.23,8.23a1.26,1.26,0,0,0,0,1.78l.57.57a1.26,1.26,0,0,0,1.78,0l4.1-4.1a1.26,1.26,0,0,1,2.15.89h0a9.58,9.58,0,0,0,9.57,9.58H86.21a1.26,1.26,0,0,1,.89,2.15Zm49.79-19.17a5,5,0,0,1-5,5H73.31a5,5,0,0,1-5-5V53.1a5,5,0,0,1,5-5H123.2a5,5,0,0,1,5,5Z" transform="translate(-28.4 -18.29)"/><path class="cls-4" d="M80,54.77a5,5,0,1,0-5,5A5,5,0,0,0,80,54.77Zm-5,1.66a1.67,1.67,0,1,1,1.66-1.66A1.66,1.66,0,0,1,75,56.43ZM40,81.38a5,5,0,1,0,5,5A5,5,0,0,0,40,81.38ZM40,88a1.66,1.66,0,1,1,1.66-1.66A1.66,1.66,0,0,1,40,88Z" transform="translate(-28.4 -18.29)"/><rect class="cls-5" x="48.64" y="98.01" width="9.41" height="3.33" rx="1.66" transform="translate(-83.25 48.63) rotate(-45)"/><rect class="cls-6" x="73.18" y="48.12" width="16.63" height="3.33" rx="1.66"/><rect class="cls-6" x="63.21" y="48.12" width="6.65" height="3.33" rx="1.66"/><rect class="cls-6" x="49.9" y="54.78" width="29.94" height="3.33" rx="1.66"/><rect class="cls-6" x="83.16" y="54.78" width="6.65" height="3.33" rx="1.66"/><rect class="cls-6" x="49.9" y="61.43" width="4.99" height="3.33" rx="1.66"/><rect class="cls-6" x="58.22" y="61.43" width="31.6" height="3.33" rx="1.66"/><rect class="cls-6" x="58.22" y="69.75" width="31.6" height="3.33" rx="1.66"/><rect class="cls-6" x="49.9" y="76.4" width="39.92" height="3.33" rx="1.66"/></svg>