<svg width="66" height="66" viewBox="0 0 66 66" fill="none" xmlns="http://www.w3.org/2000/svg">
<g clip-path="url(#clip0_12_389)">
<path d="M32.9 65.8C51.0702 65.8 65.8 51.0702 65.8 32.9C65.8 14.7298 51.0702 1.52588e-05 32.9 1.52588e-05C14.7299 1.52588e-05 0 14.7298 0 32.9C0 51.0702 14.7299 65.8 32.9 65.8Z" fill="#E0E0E0"/>
<path d="M32.9 64.8C50.7941 64.8 65.3 50.294 65.3 32.4C65.3 14.506 50.7941 1.52588e-05 32.9 1.52588e-05C15.006 1.52588e-05 0.5 14.506 0.5 32.4C0.5 50.294 15.006 64.8 32.9 64.8Z" fill="white"/>
<path d="M43.299 28.4598H23.1232C21.3983 28.4598 20 29.8847 20 31.6424V46.8173C20 48.5751 21.3983 50 23.1232 50H43.299C45.0239 50 46.4222 48.5751 46.4222 46.8173V31.6424C46.4222 29.8847 45.0239 28.4598 43.299 28.4598ZM34.562 39.5067C34.587 39.6129 34.6006 39.7236 34.6006 39.8374V42.5597C34.6006 43.3436 33.9713 43.9849 33.2022 43.9849C32.433 43.9849 31.8036 43.3435 31.8036 42.5597V39.8374C31.8036 39.7202 31.818 39.6063 31.8445 39.4972C31.0734 39.0241 30.5576 38.163 30.5576 37.179C30.5576 35.6856 31.7456 34.4749 33.2111 34.4749C34.6766 34.4749 35.8647 35.6856 35.8647 37.179C35.8647 38.1697 35.3418 39.0357 34.562 39.5067Z" fill="black"/>
<path d="M36.3338 15.5351C35.336 15.1652 34.3155 14.9984 33.2813 15C32.2471 14.9984 31.0861 15.1652 30.0884 15.5351C25.4394 17.2585 24.5971 20.0323 24.3704 24.3393H28.2297C28.4507 22.2992 28.4507 20.9391 30.4909 19.531C31.8838 18.884 34.0154 18.884 35.4083 19.531C37.8125 20.6476 38.7962 23.2619 38.5795 27.1416H42.4388C42.6715 21.5115 40.9828 17.2585 36.3338 15.5351Z" fill="black"/>
</g>
<defs>
<clipPath id="clip0_12_389">
<rect width="65.7" height="65.8" fill="white"/>
</clipPath>
</defs>
</svg>
