<svg width="66" height="66" viewBox="0 0 66 66" fill="none" xmlns="http://www.w3.org/2000/svg">
<g clip-path="url(#clip0_12_52)">
<path d="M32.9 65.8C51.0702 65.8 65.8 51.0702 65.8 32.9C65.8 14.7298 51.0702 1.52588e-05 32.9 1.52588e-05C14.7299 1.52588e-05 0 14.7298 0 32.9C0 51.0702 14.7299 65.8 32.9 65.8Z" fill="#E0E0E0"/>
<path d="M32.9 64.8C50.7941 64.8 65.3 50.294 65.3 32.4C65.3 14.506 50.7941 1.52588e-05 32.9 1.52588e-05C15.006 1.52588e-05 0.5 14.506 0.5 32.4C0.5 50.294 15.006 64.8 32.9 64.8Z" fill="white"/>
<path d="M18.3515 24.1137L23.6302 15.0028L44.8877 15L50.1378 24.2017L50.1441 42.6085L44.8885 51.8046L23.6373 51.8122L18.2977 42.6097L18.3515 24.1137Z" fill="#4D4D4D"/>
<path d="M18.2988 42.6061H27.8792L22.6172 33.3336L26.8968 24.1153L18.3527 24.1133L13 33.4085" fill="#EDEDED"/>
<path d="M30.7845 42.6061H37.7872L43.9789 33.5808L37.8949 24.202H29.6579L24.6962 33.2651L30.7845 42.6061Z" fill="#E0E0E0"/>
<path d="M13 33.4077L18.2988 42.6093H27.88L22.6754 33.4394L13 33.4077Z" fill="#ACACAC"/>
<path d="M24.7964 33.4093L30.7853 42.6089H37.7872L43.8822 33.4128L24.7964 33.4093Z" fill="#9E9E9E"/>
<path d="M27.1681 33.414L25.3609 33.9405L23.6266 33.4132L30.7069 21.1402L32.478 24.2044" fill="#00B8E3"/>
<path d="M32.4705 42.6061L30.7085 45.683L26.0055 40.6163L23.623 33.416V33.4124H27.1674" fill="#33C6E9"/>
<path d="M23.6274 33.4132H23.6238V33.416L21.8534 36.4837L20.0759 33.4299L21.8784 30.3031L27.1681 21.1422H30.7089" fill="#008AAA"/>
<path d="M43.109 42.6061H53.8327L53.8263 24.2012H43.1094L43.109 42.6061Z" fill="#D4D4D4"/>
<path d="M43.109 33.4382V42.6081H53.8132V33.4382H43.109Z" fill="#919191"/>
<path d="M30.7105 45.687H27.167L21.8531 36.4825L23.6235 33.4168L30.7105 45.687Z" fill="#00B8E3"/>
<path d="M44.8778 33.4132L37.7955 45.6846C37.1446 44.7279 36.0287 42.6093 36.0287 42.6093L41.3414 33.4116L44.8778 33.4132Z" fill="#008AAA"/>
<path d="M41.3323 45.6842L37.7955 45.6834L44.8786 33.412L46.6481 30.3478L48.4233 33.4322M44.8778 33.4132H41.3426L36.0279 24.2032L37.7872 21.143L42.0889 26.6118L44.8778 33.4132Z" fill="#00B8E3"/>
<path d="M46.6477 30.3463V30.349L44.8774 33.4132L37.788 21.1438L41.335 21.1458L46.6477 30.3463Z" fill="#33C6E9"/>
</g>
<defs>
<clipPath id="clip0_12_52">
<rect width="65.7" height="65.8" fill="white"/>
</clipPath>
</defs>
</svg>
