<svg width="66" height="66" viewBox="0 0 66 66" fill="none" xmlns="http://www.w3.org/2000/svg">
<g clip-path="url(#clip0_12_11)">
<path d="M32.9 65.8C51.0702 65.8 65.8 51.0702 65.8 32.9C65.8 14.7298 51.0702 1.52588e-05 32.9 1.52588e-05C14.7299 1.52588e-05 0 14.7298 0 32.9C0 51.0702 14.7299 65.8 32.9 65.8Z" fill="#E0E0E0"/>
<path d="M32.9 64.8C50.7941 64.8 65.3 50.294 65.3 32.4C65.3 14.506 50.7941 1.52588e-05 32.9 1.52588e-05C15.006 1.52588e-05 0.5 14.506 0.5 32.4C0.5 50.294 15.006 64.8 32.9 64.8Z" fill="white"/>
<path d="M16 16H32.1744C32.1733 21.3915 32.1744 26.7829 32.1733 32.1744C26.7829 32.1744 21.3915 32.1744 16 32.1744V16Z" fill="#F25022"/>
<path d="M33.8257 16H50C50 21.3915 50.0011 26.7829 49.999 32.1744C44.6086 32.1733 39.2171 32.1744 33.8267 32.1744C33.825 26.7829 33.8257 21.3915 33.8257 16Z" fill="#80BA01"/>
<path d="M16.0001 33.8249C21.3915 33.8267 26.783 33.8239 32.1744 33.8267C32.1755 39.2181 32.1744 44.6085 32.1744 50H16.0001V33.8249Z" fill="#02A4EF"/>
<path d="M33.8267 33.8267C39.2171 33.8249 44.6086 33.8256 50 33.8256C50 39.2171 50 44.6085 50 50H33.8257C33.8267 44.6089 33.8249 39.2174 33.8267 33.8267Z" fill="#FFB902"/>
</g>
<defs>
<clipPath id="clip0_12_11">
<rect width="65.7" height="65.8" fill="white"/>
</clipPath>
</defs>
</svg>
