<svg width="66" height="66" viewBox="0 0 66 66" fill="none" xmlns="http://www.w3.org/2000/svg">
<g clip-path="url(#clip0_12_18)">
<path d="M32.9 65.8C51.0702 65.8 65.8 51.0702 65.8 32.9C65.8 14.7298 51.0702 1.52588e-05 32.9 1.52588e-05C14.7299 1.52588e-05 0 14.7298 0 32.9C0 51.0702 14.7299 65.8 32.9 65.8Z" fill="#E0E0E0"/>
<path d="M32.9 64.8C50.7941 64.8 65.3 50.294 65.3 32.4C65.3 14.506 50.7941 1.52588e-05 32.9 1.52588e-05C15.006 1.52588e-05 0.5 14.506 0.5 32.4C0.5 50.294 15.006 64.8 32.9 64.8Z" fill="white"/>
<g clip-path="url(#clip1_12_18)">
<path d="M14.2875 29.2658C10.8125 29.2658 8 32.1054 8 35.614C8 39.1225 10.8125 41.9621 14.2875 41.9621C17.7625 41.9621 20.575 39.1225 20.575 35.614C20.575 32.1054 17.7625 29.2658 14.2875 29.2658ZM14.2875 38.7944C12.55 38.7944 11.1375 37.3682 11.1375 35.614C11.1375 33.8597 12.55 32.4336 14.2875 32.4336C16.025 32.4336 17.4375 33.8597 17.4375 35.614C17.4375 37.3682 16.025 38.7944 14.2875 38.7944Z" fill="black"/>
<path d="M25.3375 37.7468C25.3375 37.242 25.9375 37.0022 26.2875 37.3556C27.8625 38.971 30.4625 41.7476 30.475 41.7602C30.5125 41.7981 30.55 41.8612 30.7 41.9117C30.7625 41.9369 30.8625 41.9369 30.975 41.9369H33.8125C34.325 41.9369 34.475 41.3437 34.2375 41.0408L29.5375 36.1819L29.2875 35.9295C28.75 35.2858 28.8125 35.0334 29.425 34.3771L33.15 30.1745C33.3875 29.8716 33.2375 29.291 32.7125 29.291H30.1375C30.0375 29.291 29.9625 29.291 29.8875 29.3163C29.7375 29.3667 29.675 29.4172 29.6375 29.4677C29.625 29.4803 27.5625 31.7268 26.2875 33.1025C25.9375 33.4811 25.3125 33.2287 25.3125 32.7112V25.5048C25.3125 25.1388 25.0125 25 24.775 25H22.675C22.3125 25 22.1375 25.2398 22.1375 25.4543V41.4321C22.1375 41.7981 22.4375 41.899 22.6875 41.899H24.7875C25.1125 41.899 25.325 41.6592 25.325 41.4195V41.2554V37.7468H25.3375Z" fill="black"/>
<path d="M42.4875 41.3563L42.2625 39.2361C42.2375 38.9458 41.9625 38.7439 41.675 38.7944C41.5125 38.8196 41.35 38.8322 41.1875 38.8322C39.5125 38.8322 38.15 37.5071 38.05 35.8285C38.05 35.778 38.05 35.7149 38.05 35.6518V33.052C38.05 32.7112 38.3 32.4336 38.6375 32.4336H41.45C41.65 32.4336 41.95 32.2569 41.95 31.8909V29.8842C41.95 29.4929 41.7 29.291 41.475 29.291H38.6375C38.3125 29.291 38.05 29.0512 38.0375 28.7231V25.5048C38.0375 25.3029 37.8875 25 37.5 25H35.4125C35.15 25 34.9 25.1641 34.9 25.4922C34.9 25.4922 34.9 35.778 34.9 35.8285C34.9875 39.2613 37.775 42 41.1875 42C41.475 42 41.75 41.9748 42.025 41.9369C42.325 41.899 42.525 41.6466 42.4875 41.3563Z" fill="black"/>
<path d="M57.6375 38.6934C55.8625 38.6934 55.5875 38.0497 55.5875 35.6392C55.5875 35.6266 55.5875 35.6266 55.5875 35.614V29.8211C55.5875 29.6192 55.4375 29.2784 55.0375 29.2784H52.9375C52.675 29.2784 52.3875 29.493 52.3875 29.8211V30.0861C51.475 29.5561 50.4125 29.2532 49.2875 29.2532C45.8125 29.2532 43 32.0928 43 35.6013C43 39.1099 45.8125 41.9495 49.2875 41.9495C50.85 41.9495 52.275 41.369 53.375 40.4224C53.9625 41.3311 54.9125 41.9369 56.4 41.9495C56.65 41.9495 58 42 58 41.3564V39.0973C58 38.9079 57.85 38.6934 57.6375 38.6934ZM49.3 38.7944C47.5625 38.7944 46.15 37.3682 46.15 35.614C46.15 33.8597 47.5625 32.4336 49.3 32.4336C51.0375 32.4336 52.45 33.8597 52.45 35.614C52.4375 37.3682 51.025 38.7944 49.3 38.7944Z" fill="black"/>
</g>
</g>
<defs>
<clipPath id="clip0_12_18">
<rect width="65.7" height="65.8" fill="white"/>
</clipPath>
<clipPath id="clip1_12_18">
<rect width="50" height="17" fill="white" transform="translate(8 25)"/>
</clipPath>
</defs>
</svg>
